
<svg width="22px" height="22px" viewBox="0 0 22 22" version="1.1" xmlns="http://www.w3.org/2000/svg" xmlns:xlink="http://www.w3.org/1999/xlink">
    <!-- Generator: Sketch 51.3 (57544) - http://www.bohemiancoding.com/sketch -->
    <desc>Created with Sketch.</desc>
    <defs></defs>
    <g id="Page-1" stroke="none" stroke-width="1" fill="none" fill-rule="evenodd">
        <g id="Desktop-HD" transform="translate(-234.000000, -179.000000)" fill="#FFFFFF" fill-rule="nonzero">
            <g id="settings" transform="translate(234.000000, 179.000000)">
                <path d="M9.47945281,4.14477061e-18 C9.11517819,4.14477061e-18 8.8219175,0.293260009 8.8219175,0.657534512 L8.8219175,2.32876697 C7.97137825,2.53991047 7.152739,2.87974132 6.38356166,3.34246658 L5.20547947,2.16438386 C4.94789886,1.90680311 4.53155319,1.90680311 4.27397252,2.16438386 L2.13698622,4.30136962 C1.87940569,4.55895107 1.87940569,4.97529565 2.13698622,5.23287709 L3.31506849,6.41096016 C2.85596513,7.17789057 2.53762101,8.00581248 2.32876724,8.84931521 L0.657534247,8.84931521 C0.293260282,8.84931521 0,9.14257522 0,9.50684711 L0,12.5205468 C0,12.8848214 0.293260282,13.1780814 0.657534247,13.1780814 L2.30136995,13.1780814 C2.51247851,14.029379 2.85195515,14.8466131 3.31506849,15.6164371 L2.13698622,16.79452 C1.87940569,17.0520994 1.87940569,17.468446 2.13698622,17.7260282 L4.27397252,19.8630134 C4.53155326,20.1205935 4.94789886,20.1205935 5.20547947,19.8630134 L6.38356166,18.6849312 C7.15610019,19.1508631 7.97122906,19.4600119 8.8219175,19.6712325 L8.8219175,21.3424653 C8.8219175,21.70674 9.11517819,22 9.47945281,22 L12.4931524,22 C12.8574242,22 13.1506842,21.70674 13.1506842,21.342466 L13.1506842,19.6712325 C14.0031911,19.4611394 14.8179989,19.1475177 15.5890405,18.6849312 L16.7671233,19.8630134 C17.0247048,20.1205935 17.4410493,20.1205935 17.6986308,19.8630134 L19.8356166,17.7260282 C20.0931968,17.468446 20.0931968,17.0520994 19.8356166,16.79452 L18.6575338,15.6164371 C19.1212196,14.848006 19.4596036,14.0242125 19.6712326,13.1780821 L21.3424661,13.1780821 C21.70674,13.1780814 22,12.8848214 22,12.5205468 L22,9.50684986 C22,9.14257522 21.70674,8.84931521 21.3424661,8.84931521 L19.6712326,8.84931521 C19.4613629,8.00390811 19.1159609,7.17616289 18.6575338,6.41096016 L19.8356166,5.23287709 C20.0931968,4.97529565 20.0931968,4.55895107 19.8356166,4.30136962 L17.6986308,2.16438386 C17.4410493,1.90680311 17.0247048,1.90680311 16.7671233,2.16438386 L15.5890405,3.34246658 C14.8191512,2.88035966 13.9979194,2.53841598 13.1506842,2.32876697 L13.1506842,0.657534512 C13.1506842,0.293260009 12.8574242,0 12.4931524,0 L9.47945281,4.14477061e-18 Z M10.876712,6.84931479 C11.9420922,6.8210331 13.0285829,7.18131501 13.863014,7.97260211 C15.5318742,9.5551763 15.6099701,12.1941527 14.0273973,13.8630137 C12.4487296,15.5277544 9.80723081,15.6002417 8.136986,14.027397 C6.46812602,12.4448228 6.39002911,9.80584637 7.97260269,8.13698543 C8.76389044,7.30255564 9.81133244,6.87758919 10.876712,6.84931554 L10.876712,6.84931479 Z" id="rect3381-0"></path>
            </g>
        </g>
    </g>
</svg>