<?xml version="1.0" encoding="UTF-8"?>
<svg width="257px" height="61px" viewBox="0 0 257 61" version="1.1" xmlns="http://www.w3.org/2000/svg" xmlns:xlink="http://www.w3.org/1999/xlink">
    <!-- Generator: Sketch 51.2 (57519) - http://www.bohemiancoding.com/sketch -->
    <title>Logo</title>
    <desc>Created with Sketch.</desc>
    <defs>
        <path d="M27.842799,0 L16.8154323,6.42656546 L16.7967929,6.28185914 L0,8.4853795 L2.4899975,22.0346502 L5.72968052,21.4278797 L5.72968052,38.6609362 L9.03816465,40.5891549 L8.70018943,45.1381351 L8.82984253,45.2698372 L11.2688559,59.210064 L18.1876172,54.7883589 L18.3054836,54.9081636 L23.0001322,48.7256344 L27.842799,51.5480994 L31.6857939,49.30861 L35.4597135,54.7529432 L35.4482009,54.7687143 L35.4961698,54.8052367 L35.699558,55.098523 L35.7848056,55.0249247 L42.3244754,60 L45.877738,46.3057463 L46.0178072,46.1848349 L46.0515225,40.9363947 L49.9559176,38.6609362 L49.9559176,21.3689458 L53.508632,22.0346502 L56,8.47984579 L38.6824018,6.28102908 L38.6785643,6.31450798 L27.842799,0 Z M29.1278176,3.74465652 L47.3856064,14.3845831 L47.3856064,36.6148497 L29.1278176,36.6148497 L29.1278176,3.74465652 Z M8.29999168,14.3845831 L26.5577805,3.74465652 L26.5577805,36.6148497 L8.29999168,36.6148497 L8.29999168,14.3845831 Z M4.83718471,10.4669984 L11.3472508,9.61287139 L7.21781311,12.0197553 L4.83718471,10.4669984 Z M44.340266,9.61425482 L51.14445,10.4780658 L48.6330721,12.1160417 L44.340266,9.61425482 Z M49.9559176,18.7304764 L49.9559176,14.3416969 L52.6290192,12.5983039 L51.4500805,19.0104818 L49.9559176,18.7304764 Z M3.36988434,12.5983039 L5.72968052,14.1372266 L5.72968052,18.7891337 L4.54800072,19.0104818 L3.36988434,12.5983039 Z M29.1278176,39.2093261 L43.4924498,39.2093261 L43.4908051,39.432611 L29.1278176,47.8034429 L29.1278176,39.2093261 Z M11.8110417,39.2093261 L26.5577805,39.2093261 L26.5577805,47.8034429 L11.8110417,39.2093261 Z M11.3505401,44.1509225 L11.5087005,42.0290243 L20.7551873,47.4174671 L18.0563194,50.9717643 L11.3505401,44.1509225 Z M33.9205968,48.0062531 L43.4718917,42.4399017 L43.4554452,44.9837447 L36.1817141,51.2678174 L33.9205968,48.0062531 Z M12.0051102,48.499306 L16.3335503,52.9024731 L13.1330648,54.9474529 L12.0051102,48.499306 Z M37.7844238,53.2978562 L42.4533062,49.2640637 L40.8094802,55.598493 L37.7844238,53.2978562 Z" id="path-1"></path>
        <linearGradient x1="49.999943%" y1="1.55404813e-05%" x2="49.999943%" y2="100%" id="linearGradient-3">
            <stop stop-color="#872AFF" offset="0%"></stop>
            <stop stop-color="#0083D4" offset="100%"></stop>
        </linearGradient>
    </defs>
    <g id="Page-1" stroke="none" stroke-width="1" fill="none" fill-rule="evenodd">
        <g id="Desktop-HD" transform="translate(-82.000000, -29.000000)">
            <g id="Logo" transform="translate(82.000000, 22.000000)">
                <g id="Group" transform="translate(0.000000, 7.000000)">
                    <g id="Group-3">
                        <mask id="mask-2" fill="white">
                            <use xlink:href="#path-1"></use>
                        </mask>
                        <g id="Clip-2"></g>
                        <path d="M27.842799,0 L16.8154323,6.42656546 L16.7967929,6.28185914 L0,8.4853795 L2.4899975,22.0346502 L5.72968052,21.4278797 L5.72968052,38.6609362 L9.03816465,40.5891549 L8.70018943,45.1381351 L8.82984253,45.2698372 L11.2688559,59.210064 L18.1876172,54.7883589 L18.3054836,54.9081636 L23.0001322,48.7256344 L27.842799,51.5480994 L31.6857939,49.30861 L35.4597135,54.7529432 L35.4482009,54.7687143 L35.4961698,54.8052367 L35.699558,55.098523 L35.7848056,55.0249247 L42.3244754,60 L45.877738,46.3057463 L46.0178072,46.1848349 L46.0515225,40.9363947 L49.9559176,38.6609362 L49.9559176,21.3689458 L53.508632,22.0346502 L56,8.47984579 L38.6824018,6.28102908 L38.6785643,6.31450798 L27.842799,0 Z M29.1278176,3.74465652 L47.3856064,14.3845831 L47.3856064,36.6148497 L29.1278176,36.6148497 L29.1278176,3.74465652 Z M8.29999168,14.3845831 L26.5577805,3.74465652 L26.5577805,36.6148497 L8.29999168,36.6148497 L8.29999168,14.3845831 Z M4.83718471,10.4669984 L11.3472508,9.61287139 L7.21781311,12.0197553 L4.83718471,10.4669984 Z M44.340266,9.61425482 L51.14445,10.4780658 L48.6330721,12.1160417 L44.340266,9.61425482 Z M49.9559176,18.7304764 L49.9559176,14.3416969 L52.6290192,12.5983039 L51.4500805,19.0104818 L49.9559176,18.7304764 Z M3.36988434,12.5983039 L5.72968052,14.1372266 L5.72968052,18.7891337 L4.54800072,19.0104818 L3.36988434,12.5983039 Z M29.1278176,39.2093261 L43.4924498,39.2093261 L43.4908051,39.432611 L29.1278176,47.8034429 L29.1278176,39.2093261 Z M11.8110417,39.2093261 L26.5577805,39.2093261 L26.5577805,47.8034429 L11.8110417,39.2093261 Z M11.3505401,44.1509225 L11.5087005,42.0290243 L20.7551873,47.4174671 L18.0563194,50.9717643 L11.3505401,44.1509225 Z M33.9205968,48.0062531 L43.4718917,42.4399017 L43.4554452,44.9837447 L36.1817141,51.2678174 L33.9205968,48.0062531 Z M12.0051102,48.499306 L16.3335503,52.9024731 L13.1330648,54.9474529 L12.0051102,48.499306 Z M37.7844238,53.2978562 L42.4533062,49.2640637 L40.8094802,55.598493 L37.7844238,53.2978562 Z" id="Fill-1" fill="url(#linearGradient-3)" mask="url(#mask-2)"></path>
                    </g>
                </g>
                <text id="dApper" font-family="ProspectusStd-Bld, Prospectus Std" font-size="57" font-weight="bold" fill="#FFFFFF">
                    <tspan x="77" y="54">dApper</tspan>
                </text>
            </g>
        </g>
    </g>
</svg>