<svg xmlns="http://www.w3.org/2000/svg" xmlns:xlink="http://www.w3.org/1999/xlink" width="273" height="74" viewBox="0 0 273 74">
    <defs>
        <path id="a" d="M32.318 0l-12.8 7.926-.022-.178L0 10.465l2.89 16.711 3.76-.748v21.254l3.84 2.378-.392 5.61.15.163 2.832 17.193 8.03-5.454.137.148 5.45-7.625 5.62 3.481 4.461-2.762 4.38 6.715-.013.02.056.044.236.362.099-.09L49.126 74l4.125-16.89.163-.149.039-6.473 4.532-2.806V26.355l4.123.821L65 10.458 44.9 7.747l-.005.04L32.318 0zm1.491 4.618l21.192 13.123v27.417H33.81V4.618zM9.634 17.741L30.826 4.618v40.54H9.634V17.741zm-4.02-4.832l7.557-1.053-4.793 2.968-2.763-1.915zm45.852-1.051l7.898 1.065-2.915 2.02-4.983-3.085zM57.985 23.1v-5.413l3.102-2.15-1.368 7.908-1.734-.345zM3.91 15.538l2.74 1.898v5.737l-1.372.273-1.368-7.908zm29.898 32.82h16.673l-.002.276-16.67 10.324v-10.6zm-20.1 0h17.117v10.6l-17.117-10.6zm-.534 6.095l.183-2.617 10.733 6.646-3.133 4.383-7.783-8.412zm26.197 4.755l11.086-6.865-.019 3.137-8.442 7.75-2.625-4.022zm-25.437.608l5.024 5.43-3.715 2.523-1.31-7.953zm29.922 5.918l5.42-4.975-1.909 7.812-3.511-2.837z"/>
        <linearGradient id="b" x1="50%" x2="50%" y1="0%" y2="100%">
            <stop offset="0%" stop-color="#872AFF"/>
            <stop offset="100%" stop-color="#0083D4"/>
        </linearGradient>
    </defs>
    <g fill="none" fill-rule="evenodd">
        <g>
            <mask id="c" fill="#fff">
                <use xlink:href="#a"/>
            </mask>
            <path fill="url(#b)" d="M32.318 0l-12.8 7.926-.022-.178L0 10.465l2.89 16.711 3.76-.748v21.254l3.84 2.378-.392 5.61.15.163 2.832 17.193 8.03-5.454.137.148 5.45-7.625 5.62 3.481 4.461-2.762 4.38 6.715-.013.02.056.044.236.362.099-.09L49.126 74l4.125-16.89.163-.149.039-6.473 4.532-2.806V26.355l4.123.821L65 10.458 44.9 7.747l-.005.04L32.318 0zm1.491 4.618l21.192 13.123v27.417H33.81V4.618zM9.634 17.741L30.826 4.618v40.54H9.634V17.741zm-4.02-4.832l7.557-1.053-4.793 2.968-2.763-1.915zm45.852-1.051l7.898 1.065-2.915 2.02-4.983-3.085zM57.985 23.1v-5.413l3.102-2.15-1.368 7.908-1.734-.345zM3.91 15.538l2.74 1.898v5.737l-1.372.273-1.368-7.908zm29.898 32.82h16.673l-.002.276-16.67 10.324v-10.6zm-20.1 0h17.117v10.6l-17.117-10.6zm-.534 6.095l.183-2.617 10.733 6.646-3.133 4.383-7.783-8.412zm26.197 4.755l11.086-6.865-.019 3.137-8.442 7.75-2.625-4.022zm-25.437.608l5.024 5.43-3.715 2.523-1.31-7.953zm29.922 5.918l5.42-4.975-1.909 7.812-3.511-2.837z" mask="url(#c)"/>
        </g>
        <text fill="#FFF" font-family="Helvetica" font-size="57" transform="translate(0 -1)">
            <tspan x="90" y="55">dApper</tspan>
        </text>
    </g>
</svg>
